<svg width="1080" height="526" viewBox="0 0 1080 526" fill="none" xmlns="http://www.w3.org/2000/svg">
<path d="M528.81 342.12C623.251 342.12 699.81 265.561 699.81 171.12C699.81 76.6793 623.251 0.119995 528.81 0.119995C434.369 0.119995 357.81 76.6793 357.81 171.12C357.81 265.561 434.369 342.12 528.81 342.12Z" fill="url(#paint0_radial_1_1121)"/>
<path opacity="0.3" d="M688.16 165.82C688.16 254.66 616.14 326.68 527.3 326.68C438.46 326.68 366.44 254.66 366.44 165.82C366.44 76.99 438.46 4.95999 527.3 4.95999C616.14 4.95999 688.16 76.99 688.16 165.82Z" fill="url(#paint1_radial_1_1121)"/>
<path d="M488.91 40.93C447.23 48.09 414.47 81.33 408.11 123.28C430.73 131.39 452.64 141.33 474.3 151.89C484.67 137 496.56 123.34 509.98 111.23C503.04 87.79 497.66 63.83 488.91 40.93Z" fill="url(#paint2_radial_1_1121)"/>
<path d="M536.9 44.51C527.1 41.25 516.63 39.46 505.73 39.46C504.91 39.46 504.12 39.55 503.3 39.57C510.52 59.86 515.46 80.9 521.47 101.56C527.14 97.11 533.14 93.01 539.3 89.1C538.14 74.25 537.18 59.4 536.9 44.51Z" fill="url(#paint3_radial_1_1121)"/>
<path d="M691.18 426.01C785.621 426.01 862.18 349.451 862.18 255.01C862.18 160.569 785.621 84.01 691.18 84.01C596.739 84.01 520.18 160.569 520.18 255.01C520.18 349.451 596.739 426.01 691.18 426.01Z" fill="url(#paint4_radial_1_1121)"/>
<path opacity="0.3" d="M850.53 249.72C850.53 338.56 778.51 410.58 689.67 410.58C600.83 410.58 528.81 338.56 528.81 249.72C528.81 160.89 600.83 88.86 689.67 88.86C778.51 88.86 850.53 160.88 850.53 249.72Z" fill="url(#paint5_radial_1_1121)"/>
<path d="M651.29 124.83C609.61 131.99 576.85 165.23 570.49 207.18C593.11 215.29 615.02 225.23 636.68 235.79C647.05 220.9 658.94 207.24 672.36 195.13C665.42 171.69 660.03 147.72 651.29 124.83Z" fill="url(#paint6_radial_1_1121)"/>
<path d="M699.28 128.4C689.48 125.14 679.01 123.35 668.11 123.35C667.29 123.35 666.5 123.44 665.68 123.46C672.9 143.75 677.84 164.79 683.85 185.45C689.52 181 695.52 176.9 701.68 172.99C700.52 158.15 699.56 143.3 699.28 128.4Z" fill="url(#paint7_radial_1_1121)"/>
<path d="M349.18 426.01C443.621 426.01 520.18 349.451 520.18 255.01C520.18 160.569 443.621 84.01 349.18 84.01C254.739 84.01 178.18 160.569 178.18 255.01C178.18 349.451 254.739 426.01 349.18 426.01Z" fill="url(#paint8_radial_1_1121)"/>
<path opacity="0.3" d="M508.53 249.72C508.53 338.56 436.51 410.58 347.67 410.58C258.83 410.58 186.81 338.56 186.81 249.72C186.81 160.89 258.83 88.86 347.67 88.86C436.51 88.86 508.53 160.88 508.53 249.72Z" fill="url(#paint9_radial_1_1121)"/>
<path d="M309.29 124.83C267.61 131.99 234.85 165.23 228.49 207.18C251.11 215.29 273.02 225.23 294.68 235.79C305.05 220.9 316.94 207.24 330.36 195.13C323.42 171.69 318.03 147.72 309.29 124.83Z" fill="url(#paint10_radial_1_1121)"/>
<path d="M357.28 128.4C347.48 125.14 337.01 123.35 326.11 123.35C325.29 123.35 324.5 123.44 323.68 123.46C330.9 143.75 335.84 164.79 341.85 185.45C347.52 181 353.52 176.9 359.68 172.99C358.52 158.15 357.56 143.3 357.28 128.4Z" fill="url(#paint11_radial_1_1121)"/>
<path d="M900 525.88C999.411 525.88 1080 445.291 1080 345.88C1080 246.469 999.411 165.88 900 165.88C800.589 165.88 720 246.469 720 345.88C720 445.291 800.589 525.88 900 525.88Z" fill="url(#paint12_radial_1_1121)"/>
<path opacity="0.3" d="M1067.74 340.31C1067.74 433.82 991.93 509.64 898.41 509.64C804.89 509.64 729.08 433.83 729.08 340.31C729.08 246.8 804.89 170.98 898.41 170.98C991.93 170.98 1067.74 246.8 1067.74 340.31Z" fill="url(#paint13_radial_1_1121)"/>
<path d="M858.01 208.85C814.14 216.39 779.65 251.38 772.96 295.54C796.77 304.08 819.83 314.54 842.63 325.66C853.54 309.98 866.06 295.61 880.19 282.86C872.88 258.17 867.21 232.95 858.01 208.85Z" fill="url(#paint14_radial_1_1121)"/>
<path d="M908.52 212.61C898.2 209.18 887.18 207.29 875.71 207.29C874.85 207.29 874.01 207.39 873.16 207.41C880.76 228.77 885.96 250.91 892.29 272.66C898.26 267.97 904.57 263.66 911.06 259.55C909.83 243.92 908.81 228.29 908.52 212.61Z" fill="url(#paint15_radial_1_1121)"/>
<path d="M540 525.88C639.411 525.88 720 445.291 720 345.88C720 246.469 639.411 165.88 540 165.88C440.589 165.88 360 246.469 360 345.88C360 445.291 440.589 525.88 540 525.88Z" fill="url(#paint16_radial_1_1121)"/>
<path opacity="0.3" d="M707.74 340.31C707.74 433.82 631.93 509.64 538.41 509.64C444.89 509.64 369.08 433.83 369.08 340.31C369.08 246.8 444.89 170.98 538.41 170.98C631.93 170.98 707.74 246.8 707.74 340.31Z" fill="url(#paint17_radial_1_1121)"/>
<path d="M498.01 208.85C454.14 216.39 419.65 251.38 412.96 295.54C436.77 304.08 459.83 314.54 482.63 325.66C493.54 309.98 506.06 295.61 520.19 282.86C512.88 258.17 507.21 232.95 498.01 208.85Z" fill="url(#paint18_radial_1_1121)"/>
<path d="M548.52 212.61C538.2 209.18 527.18 207.29 515.71 207.29C514.85 207.29 514.01 207.39 513.16 207.41C520.76 228.77 525.96 250.91 532.29 272.66C538.26 267.97 544.57 263.66 551.06 259.55C549.83 243.92 548.81 228.29 548.52 212.61Z" fill="url(#paint19_radial_1_1121)"/>
<path d="M180 525.88C279.411 525.88 360 445.291 360 345.88C360 246.469 279.411 165.88 180 165.88C80.5887 165.88 0 246.469 0 345.88C0 445.291 80.5887 525.88 180 525.88Z" fill="url(#paint20_radial_1_1121)"/>
<path opacity="0.3" d="M347.74 340.31C347.74 433.82 271.93 509.64 178.41 509.64C84.8901 509.64 9.08008 433.83 9.08008 340.31C9.08008 246.8 84.8901 170.98 178.41 170.98C271.93 170.98 347.74 246.8 347.74 340.31Z" fill="url(#paint21_radial_1_1121)"/>
<path d="M138.01 208.85C94.14 216.39 59.65 251.38 52.96 295.54C76.77 304.08 99.83 314.54 122.63 325.66C133.54 309.98 146.06 295.61 160.19 282.86C152.88 258.17 147.21 232.95 138.01 208.85Z" fill="url(#paint22_radial_1_1121)"/>
<path d="M188.52 212.61C178.2 209.18 167.18 207.29 155.71 207.29C154.85 207.29 154.01 207.39 153.16 207.41C160.76 228.77 165.96 250.91 172.29 272.66C178.26 267.97 184.57 263.66 191.05 259.55C189.83 243.92 188.81 228.29 188.52 212.61Z" fill="url(#paint23_radial_1_1121)"/>
<defs>
<radialGradient id="paint0_radial_1_1121" cx="0" cy="0" r="1" gradientUnits="userSpaceOnUse" gradientTransform="translate(528.807 143.882) scale(206.25)">
<stop offset="0.2649" stop-color="#ED1C24"/>
<stop offset="0.5314" stop-color="#A61E22"/>
<stop offset="0.7451" stop-color="#59140A"/>
<stop offset="0.8856" stop-color="#28150D"/>
<stop offset="1" stop-color="#63170D"/>
</radialGradient>
<radialGradient id="paint1_radial_1_1121" cx="0" cy="0" r="1" gradientUnits="userSpaceOnUse" gradientTransform="translate(530.319 152.302) scale(183.772 183.772)">
<stop offset="0.5712" stop-color="#401211"/>
<stop offset="0.8554" stop-color="#236986"/>
<stop offset="0.8733" stop-color="#2D6580"/>
<stop offset="0.8989" stop-color="#3C5C70"/>
<stop offset="0.9291" stop-color="#484B57"/>
<stop offset="0.9628" stop-color="#4A3439"/>
<stop offset="0.9991" stop-color="#411413"/>
<stop offset="1" stop-color="#401211"/>
</radialGradient>
<radialGradient id="paint2_radial_1_1121" cx="0" cy="0" r="1" gradientUnits="userSpaceOnUse" gradientTransform="translate(445.58 57.613) scale(190.813 190.813)">
<stop offset="0.1539" stop-color="white"/>
<stop offset="0.6571" stop-color="#ED1C24"/>
<stop offset="0.9386" stop-color="#010101"/>
</radialGradient>
<radialGradient id="paint3_radial_1_1121" cx="0" cy="0" r="1" gradientUnits="userSpaceOnUse" gradientTransform="translate(445.58 57.6137) scale(190.812 190.812)">
<stop offset="0.1539" stop-color="white"/>
<stop offset="0.6571" stop-color="#ED1C24"/>
<stop offset="0.9386" stop-color="#010101"/>
</radialGradient>
<radialGradient id="paint4_radial_1_1121" cx="0" cy="0" r="1" gradientUnits="userSpaceOnUse" gradientTransform="translate(691.183 227.78) scale(206.25)">
<stop offset="0.2649" stop-color="#ED1C24"/>
<stop offset="0.5314" stop-color="#A61E22"/>
<stop offset="0.7451" stop-color="#59140A"/>
<stop offset="0.8856" stop-color="#28150D"/>
<stop offset="1" stop-color="#63170D"/>
</radialGradient>
<radialGradient id="paint5_radial_1_1121" cx="0" cy="0" r="1" gradientUnits="userSpaceOnUse" gradientTransform="translate(692.696 236.199) scale(183.772)">
<stop offset="0.5712" stop-color="#401211"/>
<stop offset="0.8554" stop-color="#236986"/>
<stop offset="0.8733" stop-color="#2D6580"/>
<stop offset="0.8989" stop-color="#3C5C70"/>
<stop offset="0.9291" stop-color="#484B57"/>
<stop offset="0.9628" stop-color="#4A3439"/>
<stop offset="0.9991" stop-color="#411413"/>
<stop offset="1" stop-color="#401211"/>
</radialGradient>
<radialGradient id="paint6_radial_1_1121" cx="0" cy="0" r="1" gradientUnits="userSpaceOnUse" gradientTransform="translate(607.957 141.51) scale(190.813 190.813)">
<stop offset="0.1539" stop-color="white"/>
<stop offset="0.6571" stop-color="#ED1C24"/>
<stop offset="0.9386" stop-color="#010101"/>
</radialGradient>
<radialGradient id="paint7_radial_1_1121" cx="0" cy="0" r="1" gradientUnits="userSpaceOnUse" gradientTransform="translate(607.957 141.511) scale(190.812 190.812)">
<stop offset="0.1539" stop-color="white"/>
<stop offset="0.6571" stop-color="#ED1C24"/>
<stop offset="0.9386" stop-color="#010101"/>
</radialGradient>
<radialGradient id="paint8_radial_1_1121" cx="0" cy="0" r="1" gradientUnits="userSpaceOnUse" gradientTransform="translate(349.184 227.78) scale(206.25)">
<stop offset="0.2649" stop-color="#ED1C24"/>
<stop offset="0.5314" stop-color="#A61E22"/>
<stop offset="0.7451" stop-color="#59140A"/>
<stop offset="0.8856" stop-color="#28150D"/>
<stop offset="1" stop-color="#63170D"/>
</radialGradient>
<radialGradient id="paint9_radial_1_1121" cx="0" cy="0" r="1" gradientUnits="userSpaceOnUse" gradientTransform="translate(350.696 236.199) scale(183.772 183.772)">
<stop offset="0.5712" stop-color="#401211"/>
<stop offset="0.8554" stop-color="#236986"/>
<stop offset="0.8733" stop-color="#2D6580"/>
<stop offset="0.8989" stop-color="#3C5C70"/>
<stop offset="0.9291" stop-color="#484B57"/>
<stop offset="0.9628" stop-color="#4A3439"/>
<stop offset="0.9991" stop-color="#411413"/>
<stop offset="1" stop-color="#401211"/>
</radialGradient>
<radialGradient id="paint10_radial_1_1121" cx="0" cy="0" r="1" gradientUnits="userSpaceOnUse" gradientTransform="translate(265.957 141.51) scale(190.813 190.813)">
<stop offset="0.1539" stop-color="white"/>
<stop offset="0.6571" stop-color="#ED1C24"/>
<stop offset="0.9386" stop-color="#010101"/>
</radialGradient>
<radialGradient id="paint11_radial_1_1121" cx="0" cy="0" r="1" gradientUnits="userSpaceOnUse" gradientTransform="translate(265.957 141.511) scale(190.812 190.812)">
<stop offset="0.1539" stop-color="white"/>
<stop offset="0.6571" stop-color="#ED1C24"/>
<stop offset="0.9386" stop-color="#010101"/>
</radialGradient>
<radialGradient id="paint12_radial_1_1121" cx="0" cy="0" r="1" gradientUnits="userSpaceOnUse" gradientTransform="translate(900 317.215) scale(217.105)">
<stop offset="0.2649" stop-color="#ED1C24"/>
<stop offset="0.5314" stop-color="#A61E22"/>
<stop offset="0.7451" stop-color="#59140A"/>
<stop offset="0.8856" stop-color="#28150D"/>
<stop offset="1" stop-color="#63170D"/>
</radialGradient>
<radialGradient id="paint13_radial_1_1121" cx="0" cy="0" r="1" gradientUnits="userSpaceOnUse" gradientTransform="translate(901.592 326.077) scale(193.444 193.444)">
<stop offset="0.5712" stop-color="#401211"/>
<stop offset="0.8554" stop-color="#236986"/>
<stop offset="0.8733" stop-color="#2D6580"/>
<stop offset="0.8989" stop-color="#3C5C70"/>
<stop offset="0.9291" stop-color="#484B57"/>
<stop offset="0.9628" stop-color="#4A3439"/>
<stop offset="0.9991" stop-color="#411413"/>
<stop offset="1" stop-color="#401211"/>
</radialGradient>
<radialGradient id="paint14_radial_1_1121" cx="0" cy="0" r="1" gradientUnits="userSpaceOnUse" gradientTransform="translate(812.393 226.405) scale(200.856 200.856)">
<stop offset="0.1539" stop-color="white"/>
<stop offset="0.6571" stop-color="#ED1C24"/>
<stop offset="0.9386" stop-color="#010101"/>
</radialGradient>
<radialGradient id="paint15_radial_1_1121" cx="0" cy="0" r="1" gradientUnits="userSpaceOnUse" gradientTransform="translate(812.393 226.406) scale(200.855 200.854)">
<stop offset="0.1539" stop-color="white"/>
<stop offset="0.6571" stop-color="#ED1C24"/>
<stop offset="0.9386" stop-color="#010101"/>
</radialGradient>
<radialGradient id="paint16_radial_1_1121" cx="0" cy="0" r="1" gradientUnits="userSpaceOnUse" gradientTransform="translate(540 317.215) scale(217.105)">
<stop offset="0.2649" stop-color="#ED1C24"/>
<stop offset="0.5314" stop-color="#A61E22"/>
<stop offset="0.7451" stop-color="#59140A"/>
<stop offset="0.8856" stop-color="#28150D"/>
<stop offset="1" stop-color="#63170D"/>
</radialGradient>
<radialGradient id="paint17_radial_1_1121" cx="0" cy="0" r="1" gradientUnits="userSpaceOnUse" gradientTransform="translate(541.592 326.077) scale(193.444)">
<stop offset="0.5712" stop-color="#401211"/>
<stop offset="0.8554" stop-color="#236986"/>
<stop offset="0.8733" stop-color="#2D6580"/>
<stop offset="0.8989" stop-color="#3C5C70"/>
<stop offset="0.9291" stop-color="#484B57"/>
<stop offset="0.9628" stop-color="#4A3439"/>
<stop offset="0.9991" stop-color="#411413"/>
<stop offset="1" stop-color="#401211"/>
</radialGradient>
<radialGradient id="paint18_radial_1_1121" cx="0" cy="0" r="1" gradientUnits="userSpaceOnUse" gradientTransform="translate(452.393 226.405) scale(200.856 200.856)">
<stop offset="0.1539" stop-color="white"/>
<stop offset="0.6571" stop-color="#ED1C24"/>
<stop offset="0.9386" stop-color="#010101"/>
</radialGradient>
<radialGradient id="paint19_radial_1_1121" cx="0" cy="0" r="1" gradientUnits="userSpaceOnUse" gradientTransform="translate(452.393 226.406) scale(200.855 200.854)">
<stop offset="0.1539" stop-color="white"/>
<stop offset="0.6571" stop-color="#ED1C24"/>
<stop offset="0.9386" stop-color="#010101"/>
</radialGradient>
<radialGradient id="paint20_radial_1_1121" cx="0" cy="0" r="1" gradientUnits="userSpaceOnUse" gradientTransform="translate(180 317.215) scale(217.105)">
<stop offset="0.2649" stop-color="#ED1C24"/>
<stop offset="0.5314" stop-color="#A61E22"/>
<stop offset="0.7451" stop-color="#59140A"/>
<stop offset="0.8856" stop-color="#28150D"/>
<stop offset="1" stop-color="#63170D"/>
</radialGradient>
<radialGradient id="paint21_radial_1_1121" cx="0" cy="0" r="1" gradientUnits="userSpaceOnUse" gradientTransform="translate(181.592 326.077) scale(193.444)">
<stop offset="0.5712" stop-color="#401211"/>
<stop offset="0.8554" stop-color="#236986"/>
<stop offset="0.8733" stop-color="#2D6580"/>
<stop offset="0.8989" stop-color="#3C5C70"/>
<stop offset="0.9291" stop-color="#484B57"/>
<stop offset="0.9628" stop-color="#4A3439"/>
<stop offset="0.9991" stop-color="#411413"/>
<stop offset="1" stop-color="#401211"/>
</radialGradient>
<radialGradient id="paint22_radial_1_1121" cx="0" cy="0" r="1" gradientUnits="userSpaceOnUse" gradientTransform="translate(92.3933 226.405) scale(200.856 200.856)">
<stop offset="0.1539" stop-color="white"/>
<stop offset="0.6571" stop-color="#ED1C24"/>
<stop offset="0.9386" stop-color="#010101"/>
</radialGradient>
<radialGradient id="paint23_radial_1_1121" cx="0" cy="0" r="1" gradientUnits="userSpaceOnUse" gradientTransform="translate(92.3931 226.406) scale(200.855 200.854)">
<stop offset="0.1539" stop-color="white"/>
<stop offset="0.6571" stop-color="#ED1C24"/>
<stop offset="0.9386" stop-color="#010101"/>
</radialGradient>
</defs>
</svg>
